<?xml version="1.0" encoding="utf-8"?>
<!-- Generator: Adobe Illustrator 26.5.0, SVG Export Plug-In . SVG Version: 6.00 Build 0)  -->
<svg version="1.1" id="Calque_1" xmlns="http://www.w3.org/2000/svg" xmlns:xlink="http://www.w3.org/1999/xlink" x="0px" y="0px"
	 viewBox="0 0 713.79 159.98" style="enable-background:new 0 0 713.79 159.98;" xml:space="preserve">
<style type="text/css">
	.st0{fill:#9DACAC;}
</style>
<g>
	<path class="st0" d="M234.64,5.17h18.36c4.48,0,8.54,2.64,10.37,6.73l60.29,135.26h-27.88L234.64,5.17z"/>
	<path class="st0" d="M498.73,79.24c-8.42-6.34-21.41-10.67-39-13c-6.2-0.77-19.01-1.81-38.41-3.1c-13.2-0.77-22.7-2.19-28.51-4.27
		c-8.15-2.84-12.22-7.37-12.22-13.58c0-5.94,3.81-10.6,11.45-13.96c7.63-3.36,18.61-5.04,32.98-5.04c21.6,0,42.8,5.3,63.63,15.91
		l10.47-11.62c0,0,0,0,0,0c3.25-3.61-0.18-6.47-1.11-7.14c-19.56-11.8-43.31-17.71-71.26-17.71c-22.5,0-39.93,3.81-52.28,11.45
		c-12.35,7.63-18.53,18.04-18.53,31.23c0,12.8,5.44,21.92,16.3,27.36c9.32,4.65,25.54,7.76,48.68,9.31
		c26.13,1.68,42.17,3.3,48.12,4.85c11.38,2.98,17.07,8.92,17.07,17.85c0,7.63-4.33,13.64-12.99,18.04
		c-9.06,4.53-21.8,6.79-38.22,6.79c-21.72,0-42.2-4.95-61.46-14.83c-0.05-0.02-0.09-0.03-0.15-0.06
		c-9.61-4.49-14.03,0.82-14.03,0.82l-8.17,10.78c19.92,15.78,47.79,23.67,83.62,23.67c24.71,0,43.65-4.07,56.84-12.22
		c13.2-8.15,19.8-19.66,19.8-34.54C511.35,94.56,507.13,85.58,498.73,79.24z"/>
	<path class="st0" d="M692.34,28.7c-14.29-13-33.66-19.5-58.1-19.5h-88.86v14.9c0,0,0.74,6.05,9.96,6.05h13.33h67.51
		c15.65,0,28.29,4.61,37.92,13.83s14.46,21.36,14.46,36.42c0,14.15-4.5,25.74-13.48,34.77c-9,9.02-20.48,13.54-34.43,13.54h-71.98
		l-23.29,0.57v11.65c0,0,0.01,8.73,9.48,8.73h83.85c20.81,0,38.27-6.2,52.37-18.62c15.14-13.33,22.7-30.01,22.7-50.06
		C713.79,59.12,706.63,41.69,692.34,28.7z"/>
	<path class="st0" d="M21.44,28.7c14.29-13,33.66-19.5,58.1-19.5h88.86v14.9c0,0-0.74,6.05-9.96,6.05h-13.33H77.6
		c-15.65,0-28.29,4.61-37.92,13.83S25.21,65.34,25.21,80.41c0,14.15,4.5,25.74,13.48,34.77c9,9.02,20.48,13.54,34.43,13.54h71.98
		l23.29,0.57v11.65c0,0-0.01,8.73-9.48,8.73H75.07c-20.81,0-38.27-6.2-52.37-18.62C7.56,117.71,0,101.03,0,80.98
		C0,59.12,7.15,41.69,21.44,28.7z"/>
</g>
</svg>
